<?xml version="1.0" encoding="UTF-8"?>
<svg version="1.1" xmlns="http://www.w3.org/2000/svg" width="788" height="359">
<path d="M0 0 C260.04 0 520.08 0 788 0 C788 118.14 788 236.28 788 358 C527.96 358 267.92 358 0 358 C0 239.86 0 121.72 0 0 Z " fill="#FEFEFE" transform="translate(0,0)"/>
<path d="M0 0 C1.05815918 0.38551025 1.05815918 0.38551025 2.13769531 0.77880859 C16.45062109 6.14862805 27.96117284 14.43780614 39 25 C39.67417969 25.61101563 40.34835937 26.22203125 41.04296875 26.8515625 C59.7010478 44.35514964 70.51587567 70.52302165 71.3359375 95.8828125 C71.69448694 124.68891076 66.05027804 149.43520526 47 172 C46.00033203 173.20076172 46.00033203 173.20076172 44.98046875 174.42578125 C27.81095444 194.317669 3.40088252 207.74107157 -23 210 C-57.09494487 211.74938358 -83.45581891 203.94150801 -109.296875 180.95703125 C-124.49617466 166.59315409 -135.2042453 147.32234175 -140 127 C-140.22300781 126.06285156 -140.44601563 125.12570313 -140.67578125 124.16015625 C-146.04677317 96.35522526 -140.61997873 67.01870053 -125.24609375 43.29296875 C-108.88984462 19.31328525 -84.60162699 1.99711534 -56 -4 C-37.19448578 -6.53874442 -17.93067232 -6.63807569 0 0 Z " fill="#78BAE5" transform="translate(297,26)"/>
<path d="M0 0 C12.21 0 24.42 0 37 0 C45.86153846 12.18461538 45.86153846 12.18461538 49.375 18 C54.05137823 25.63349976 59.01399991 33.06734666 64 40.5 C69.17413331 48.21809202 74.30205459 55.94835875 79.1706543 63.86425781 C83.10442171 70.2332936 87.20838321 76.48987418 91.3125 82.75 C91.86386124 83.59111328 91.86386124 83.59111328 92.42636108 84.44921875 C94.25886477 87.24428876 96.09197992 90.03895684 97.92529297 92.83349609 C100.91919446 97.4029127 103.89908482 101.98135542 106.875 106.5625 C107.33688721 107.2730957 107.79877441 107.98369141 108.2746582 108.71582031 C113.52780242 116.80319786 118.76103204 124.90341316 124 133 C124.33 89.11 124.66 45.22 125 0 C137.87 0 150.74 0 164 0 C164 67.65 164 135.3 164 205 C151.46 205 138.92 205 126 205 C117.55598697 196.34663127 117.55598697 196.34663127 116.140625 192.24609375 C113.99498682 186.73589055 111.01116722 182.17834102 107.6875 177.3125 C106.59053993 175.63053834 105.49815971 173.9455817 104.41015625 172.2578125 C100.8255663 166.72753998 97.2263242 161.20688526 93.625 155.6875 C92.68781128 154.25083984 92.68781128 154.25083984 91.73168945 152.78515625 C89.82126889 149.85667778 87.91066318 146.92832018 86 144 C77.72683322 131.32038098 69.45786773 118.6381098 61.2109375 105.94140625 C58.96856094 102.48930835 56.72338789 99.03904769 54.4765625 95.58984375 C53.89471191 94.69612061 53.31286133 93.80239746 52.71337891 92.8815918 C51.60945743 91.18607034 50.50500616 89.49089365 49.39990234 87.79614258 C48.64507568 86.63634888 48.64507568 86.63634888 47.875 85.453125 C47.43929687 84.78442383 47.00359375 84.11572266 46.5546875 83.42675781 C44.340133 79.96999404 42.17580331 76.4812853 40 73 C39.67 116.56 39.34 160.12 39 205 C26.13 205 13.26 205 0 205 C0 137.35 0 69.7 0 0 Z " fill="#2D2B6F" transform="translate(474,26)"/>
<path d="M0 0 C1.05815918 0.38551025 1.05815918 0.38551025 2.13769531 0.77880859 C16.45062109 6.14862805 27.96117284 14.43780614 39 25 C39.67417969 25.61101563 40.34835937 26.22203125 41.04296875 26.8515625 C59.7010478 44.35514964 70.51587567 70.52302165 71.3359375 95.8828125 C71.69448694 124.68891076 66.05027804 149.43520526 47 172 C46.00033203 173.20076172 46.00033203 173.20076172 44.98046875 174.42578125 C27.81095444 194.317669 3.40088252 207.74107157 -23 210 C-57.09494487 211.74938358 -83.45581891 203.94150801 -109.296875 180.95703125 C-124.49617466 166.59315409 -135.2042453 147.32234175 -140 127 C-140.22300781 126.06285156 -140.44601563 125.12570313 -140.67578125 124.16015625 C-146.04677317 96.35522526 -140.61997873 67.01870053 -125.24609375 43.29296875 C-108.88984462 19.31328525 -84.60162699 1.99711534 -56 -4 C-37.19448578 -6.53874442 -17.93067232 -6.63807569 0 0 Z M-87 44 C-88.13115234 44.99580078 -88.13115234 44.99580078 -89.28515625 46.01171875 C-101.13460365 57.00751814 -111.14482522 73.82359712 -112.20532227 90.16357422 C-112.30504545 93.86123866 -112.32194574 97.55105016 -112.3125 101.25 C-112.32861328 102.49652344 -112.34472656 103.74304688 -112.36132812 105.02734375 C-112.37294204 127.25636861 -103.22673506 144.32386477 -88 160 C-72.93608925 174.85795885 -53.54805623 180.3894712 -32.78759766 180.30273438 C-12.08657467 179.83195937 6.15247409 171.04509095 20.58789062 156.48095703 C35.07183126 141.29084916 41.52646439 122.11284408 41.28149414 101.37524414 C40.70614711 79.15167476 32.91060484 60.76273677 17 45 C9.34730907 37.74790119 0.56107455 33.20299013 -9 29 C-10.02609375 28.54109375 -11.0521875 28.0821875 -12.109375 27.609375 C-36.65681511 18.38784988 -68.22183402 26.49379535 -87 44 Z " fill="#2D2B6E" transform="translate(297,26)"/>
<path d="M0 0 C88.01176471 0 88.01176471 0 106.75 17.3125 C119.83502471 31.10565546 121.58261315 47.57952737 121.33984375 65.6875 C120.90920355 77.72398297 116.80095777 87.79552263 109 97 C108.40445313 97.70640625 107.80890625 98.4128125 107.1953125 99.140625 C95.49030949 111.86556603 79.67505965 116.49548334 63 118 C55.08 118 47.16 118 39 118 C39 146.71 39 175.42 39 205 C26.13 205 13.26 205 0 205 C0 137.35 0 69.7 0 0 Z " fill="#2C2B6F" transform="translate(17,26)"/>
<path d="M0 0 C37.29 0 74.58 0 113 0 C113 12.54 113 25.08 113 38 C100.79 38 88.58 38 76 38 C76 93.11 76 148.22 76 205 C62.8 205 49.6 205 36 205 C36 149.89 36 94.78 36 38 C24.12 38 12.24 38 0 38 C0 25.46 0 12.92 0 0 Z " fill="#2D2B6F" transform="translate(659,26)"/>
<path d="M0 0 C12.87 0 25.74 0 39 0 C39 67.65 39 135.3 39 205 C26.13 205 13.26 205 0 205 C0 137.35 0 69.7 0 0 Z " fill="#2D2C70" transform="translate(396,26)"/>
<path d="M0 0 C11.93670857 9.70638186 20.98174136 20.40416408 28 34 C28.40992188 34.73347656 28.81984375 35.46695313 29.2421875 36.22265625 C38.35977479 53.99841751 38.80422322 78.483853 33.25390625 97.30078125 C32.84011719 98.52152344 32.42632812 99.74226563 32 101 C31.68651611 101.95011963 31.68651611 101.95011963 31.36669922 102.91943359 C24.06021476 124.61996609 8.21379105 142.63489707 -12.25 152.875 C-25.48623598 159.15930941 -36.94947784 161.39342386 -51.625 161.375 C-52.61879166 161.37518127 -52.61879166 161.37518127 -53.63265991 161.37536621 C-64.02120056 161.34837687 -73.22591735 160.60754775 -83 157 C-83.83402344 156.69964844 -84.66804688 156.39929688 -85.52734375 156.08984375 C-87.77132896 155.17884097 -89.86396432 154.14049048 -92 153 C-93.36125 152.31357422 -93.36125 152.31357422 -94.75 151.61328125 C-115.12865691 140.65444622 -130.67589751 120.91627106 -137.3125 98.875 C-143.80511385 73.82409936 -141.94274119 49.27794528 -129.08203125 26.62109375 C-124.72607343 19.81327943 -119.65982422 13.75757594 -114 8 C-113.32582031 7.31292969 -112.65164062 6.62585938 -111.95703125 5.91796875 C-81.79436713 -22.7733459 -32.85351371 -25.20777357 0 0 Z M-104 14 C-105.13115234 14.99580078 -105.13115234 14.99580078 -106.28515625 16.01171875 C-118.13460365 27.00751814 -128.14482522 43.82359712 -129.20532227 60.16357422 C-129.30504545 63.86123866 -129.32194574 67.55105016 -129.3125 71.25 C-129.32861328 72.49652344 -129.34472656 73.74304688 -129.36132812 75.02734375 C-129.37294204 97.25636861 -120.22673506 114.32386477 -105 130 C-89.93608925 144.85795885 -70.54805623 150.3894712 -49.78759766 150.30273438 C-29.08657467 149.83195937 -10.84752591 141.04509095 3.58789062 126.48095703 C18.07183126 111.29084916 24.52646439 92.11284408 24.28149414 71.37524414 C23.70614711 49.15167476 15.91060484 30.76273677 0 15 C-7.65269093 7.74790119 -16.43892545 3.20299013 -26 -1 C-27.02609375 -1.45890625 -28.0521875 -1.9178125 -29.109375 -2.390625 C-53.65681511 -11.61215012 -85.22183402 -3.50620465 -104 14 Z " fill="#E60E8A" transform="translate(314,56)"/>
<path d="M0 0 C5.83242816 3.39985549 10.60817885 8.31316305 13.02734375 14.73046875 C14.71772019 22.6235488 14.50889647 30.91724568 10.69140625 38.11328125 C6.71227967 44.20591113 0.37491479 48.64586174 -6.5 50.9375 C-14.92555382 51.8351998 -21.53474518 50.92645415 -28.5 45.9375 C-34.03746008 40.94333789 -38.02526787 35.51273092 -38.8125 27.92578125 C-39.1488814 18.87501933 -37.25496923 13.15098235 -32.375 5.6875 C-23.46390683 -2.83615433 -11.42808858 -5.18050401 0 0 Z " fill="#FCFDFD" transform="translate(308.5,280.0625)"/>
<path d="M0 0 C5.88375268 3.42977373 10.58102661 8.33196303 13.03125 14.79296875 C15.16258973 24.54384802 13.27518791 32.38712417 8.9375 41.0625 C3.71564878 47.22160657 -2.92109755 50.28115854 -10.82421875 51.2109375 C-18.66948202 51.54808931 -24.70663457 49.34582458 -30.578125 44.0703125 C-37.07046066 37.05968113 -39.09177216 30.67027522 -38.8515625 21.16015625 C-38.06190402 13.92162019 -34.7475265 7.95687317 -29.5 2.9375 C-20.74381936 -3.36695006 -9.88609562 -4.48149817 0 0 Z " fill="#FCFDFD" transform="translate(711.5,280.0625)"/>
<path d="M0 0 C1.97959042 0.95579461 3.65552203 1.93166398 5.421875 3.23828125 C6.24816406 3.83125 7.07445312 4.42421875 7.92578125 5.03515625 C12.9573755 9.47618779 15.83926984 15.76017228 16.94140625 22.33984375 C17.24251164 30.97153148 15.13373148 38.57548822 9.359375 45.11328125 C3.26652079 50.62028409 -4.95778235 53.08041319 -13.1015625 52.6796875 C-21.67068519 51.1523833 -27.69806434 46.23303487 -32.578125 39.23828125 C-36.59636715 32.75724552 -36.4487311 25.6923278 -35.578125 18.23828125 C-33.07645405 9.93273369 -28.11900305 4.92298708 -20.81640625 0.60546875 C-14.49828531 -2.06201295 -6.56346103 -1.93920439 0 0 Z " fill="#FDFDFD" transform="translate(581.578125,278.76171875)"/>
<path d="M0 0 C1.18867676 0.00749268 1.18867676 0.00749268 2.40136719 0.01513672 C10.87378325 0.26677546 16.7297045 2.91190805 22.8125 8.8125 C23.59625 9.699375 24.38 10.58625 25.1875 11.5 C25.5175 8.2 25.8475 4.9 26.1875 1.5 C29.1575 1.5 32.1275 1.5 35.1875 1.5 C35.1875 23.28 35.1875 45.06 35.1875 67.5 C32.2175 67.5 29.2475 67.5 26.1875 67.5 C25.6925 63.045 25.6925 63.045 25.1875 58.5 C23.7334375 59.86125 23.7334375 59.86125 22.25 61.25 C14.96203586 67.51587161 6.66034915 69.91678749 -2.8125 69.765625 C-13.06908837 68.85748957 -19.90178898 63.8361839 -26.8125 56.5 C-32.9971767 49.04667167 -34.41602966 40.14309743 -34.16015625 30.67578125 C-33.17465636 21.67340581 -28.59114759 13.7920236 -21.89453125 7.77734375 C-14.94214723 2.30419037 -8.79079243 -0.07266658 0 0 Z M-18.68359375 16.50390625 C-24.8890639 24.34631097 -25.83787664 31.61321054 -24.8125 41.5 C-22.22445322 50.40769589 -16.29408457 55.92723849 -8.4375 60.4375 C0.28202516 62.99322289 8.15243492 61.65309345 16.1875 57.5 C22.23904777 53.27512313 25.45099932 47.59832734 27.1875 40.5 C28.61319018 31.33839094 26.48483036 24.07081464 21.1875 16.5 C15.34861283 10.62696729 9.25773546 8.20537373 1 8 C-7.32688891 7.99187522 -12.99501497 10.41154526 -18.68359375 16.50390625 Z " fill="#2E2B6D" transform="translate(570.8125,269.5)"/>
<path d="M0 0 C4.3857208 2.55478882 7.37894551 5.16216826 10.1875 9.375 C10.5175 5.745 10.8475 2.115 11.1875 -1.625 C13.8275 -1.625 16.4675 -1.625 19.1875 -1.625 C19.1875 20.155 19.1875 41.935 19.1875 64.375 C16.5475 64.375 13.9075 64.375 11.1875 64.375 C10.8575 61.075 10.5275 57.775 10.1875 54.375 C9.67703125 54.90609375 9.1665625 55.4371875 8.640625 55.984375 C1.35459087 63.06371313 -6.24030758 66.41410995 -16.4375 66.875 C-25.45110719 66.48592343 -33.2828902 62.48334465 -39.8125 56.375 C-47.21833849 48.12949728 -50.23445383 39.39336493 -50.0859375 28.34375 C-49.25933039 19.36915853 -45.11398761 11.71348265 -38.8125 5.375 C-27.65735097 -3.5414656 -13.27353737 -6.30658119 0 0 Z M-35.8125 14.8125 C-41.16299713 22.00223052 -41.78564151 29.66794441 -40.8125 38.375 C-38.16101176 47.27906748 -32.31639484 52.78943074 -24.4375 57.3125 C-15.09702835 60.05022445 -6.96640188 58.15017793 1.4375 53.625 C6.83893294 49.20564578 9.95680709 44.31163274 11.1875 37.375 C12.03939352 28.59128708 11.43178069 21.66679582 6.1875 14.375 C1.43523264 9.04704229 -3.89966119 5.80445792 -11.015625 5.0234375 C-21.53841688 4.59068199 -28.9943097 6.52426867 -35.8125 14.8125 Z " fill="#2C296D" transform="translate(713.8125,272.625)"/>
<path d="M0 0 C0.78656982 0.00241699 1.57313965 0.00483398 2.38354492 0.00732422 C10.43341668 0.25895981 17.21207827 2.69713429 23.15234375 8.296875 C24.5625 9.9375 24.5625 9.9375 26.3125 12.5625 C26.6425 8.9325 26.9725 5.3025 27.3125 1.5625 C29.9525 1.5625 32.5925 1.5625 35.3125 1.5625 C35.3125 23.3425 35.3125 45.1225 35.3125 67.5625 C32.6725 67.5625 30.0325 67.5625 27.3125 67.5625 C26.9825 64.2625 26.6525 60.9625 26.3125 57.5625 C25.80203125 58.09359375 25.2915625 58.6246875 24.765625 59.171875 C17.47959087 66.25121313 9.88469242 69.60160995 -0.3125 70.0625 C-9.32610719 69.67342343 -17.1578902 65.67084465 -23.6875 59.5625 C-30.94910677 51.47758181 -34.08097916 42.86385817 -33.8984375 31.984375 C-33.10453497 22.86919779 -29.21163074 14.80644778 -22.54296875 8.55078125 C-15.53489213 2.85597282 -9.04053023 -0.02904122 0 0 Z M-19.6875 18 C-25.03799713 25.18973052 -25.66064151 32.85544441 -24.6875 41.5625 C-22.04016952 50.45260515 -16.2149105 55.86346682 -8.4375 60.5 C-1.07028633 62.58737721 5.74945271 62.68719924 12.75 59.375 C20.10709563 55.17262697 24.63078883 49.60763351 27.3125 41.5625 C28.13634933 32.5119266 27.78930241 25.05344133 22.3125 17.5625 C17.55282065 12.23753807 12.23014673 8.99248562 5.109375 8.2109375 C-5.41341688 7.77818199 -12.8693097 9.71176867 -19.6875 18 Z " fill="#2C296C" transform="translate(294.6875,269.4375)"/>
<path d="M0 0 C3.91875 -0.061875 7.8375 -0.12375 11.875 -0.1875 C13.69620361 -0.22846802 13.69620361 -0.22846802 15.55419922 -0.27026367 C24.91814456 -0.34112184 33.5911091 0.6053597 40.59375 7.34375 C44.71242672 12.19463592 45.56292488 17.34925778 45.34765625 23.5078125 C44.5771955 29.03089069 42.1892466 33.22801629 38 36.875 C29.71994377 42.74003983 21.4201231 42.13796314 11.5625 42.0625 C7.746875 42.041875 3.93125 42.02125 0 42 C0 28.14 0 14.28 0 0 Z " fill="#FCFDFD" transform="translate(56,64)"/>
<path d="M0 0 C2.64 0 5.28 0 8 0 C8.01458252 1.26070313 8.02916504 2.52140625 8.04418945 3.8203125 C8.10242487 8.52453115 8.17965563 13.22828373 8.26245117 17.93212891 C8.29558213 19.96297609 8.32365043 21.99391274 8.34643555 24.02490234 C8.38019977 26.95448718 8.43252599 29.8832609 8.48828125 32.8125 C8.49467117 33.71178223 8.5010611 34.61106445 8.50764465 35.53759766 C8.6700721 42.59697302 9.73449569 48.32786671 14.4375 53.875 C20.75158405 59.1110697 27.03170322 58.69522052 35 58 C39.1201871 57.00460312 41.87892019 55.60436055 44.33203125 52.09375 C46.79604394 47.42692738 48.09397467 42.97148727 48.20532227 37.69042969 C48.22526749 36.84986023 48.24521271 36.00929077 48.26576233 35.14324951 C48.28247482 34.24519592 48.29918732 33.34714233 48.31640625 32.421875 C48.33718735 31.4953009 48.35796844 30.56872681 48.37937927 29.61407471 C48.44466961 26.65945728 48.50366431 23.70475232 48.5625 20.75 C48.60570473 18.74478268 48.64931965 16.73957415 48.69335938 14.734375 C48.80032999 9.82300596 48.90165518 4.91154903 49 0 C51.64 0 54.28 0 57 0 C57.04971295 5.95905361 57.0858671 11.91798449 57.10986328 17.87719727 C57.11987483 19.90130722 57.1334881 21.92540289 57.15087891 23.94946289 C57.17534141 26.87129256 57.18653184 29.79292978 57.1953125 32.71484375 C57.20563507 33.60896469 57.21595764 34.50308563 57.22659302 35.42430115 C57.22844917 45.99403654 55.2608278 54.42971174 47.875 62.25 C39.73916223 67.20224908 31.48539514 69.24273894 22 68 C14.6038184 66.11925668 7.92716697 62.54246338 3.71875 56.01171875 C1.01695541 50.88795829 -0.12988753 46.11007301 -0.11352539 40.30151367 C-0.11344986 39.40095749 -0.11337433 38.50040131 -0.11329651 37.57255554 C-0.10813522 36.6140419 -0.10297394 35.65552826 -0.09765625 34.66796875 C-0.0962413 33.67622147 -0.09482635 32.68447418 -0.09336853 31.66267395 C-0.08778418 28.50425157 -0.07523452 25.34590085 -0.0625 22.1875 C-0.05748298 20.04231873 -0.05292042 17.89713635 -0.04882812 15.75195312 C-0.03781988 10.50127776 -0.0210973 5.250644 0 0 Z " fill="#2A276B" transform="translate(346,271)"/>
<path d="M0 0 C3.27825404 1.68488262 5.70876031 3.6930443 8.37890625 6.22265625 C6.72890625 8.20265625 5.07890625 10.18265625 3.37890625 12.22265625 C2.90582031 11.87332031 2.43273437 11.52398437 1.9453125 11.1640625 C-2.96783069 7.78328366 -7.52281552 5.47019835 -13.62109375 6.22265625 C-16.53459359 7.53283379 -17.48859772 8.65272514 -19.62109375 11.22265625 C-20.27169551 15.20759205 -19.82107362 17.87181986 -17.62109375 21.22265625 C-14.81799459 23.24328791 -14.81799459 23.24328791 -11.49609375 25.09765625 C5.74086751 35.30854002 5.74086751 35.30854002 8.37890625 43.22265625 C8.85140267 50.31010254 7.58438523 54.98795374 3.50390625 60.97265625 C-0.88302639 65.61764375 -5.53922941 67.31818371 -11.80859375 67.53515625 C-19.17278359 67.45023149 -25.22858999 64.09330481 -30.62109375 59.22265625 C-30.05737961 55.95311423 -29.12147109 54.39689742 -26.62109375 52.22265625 C-24.03270616 53.46508229 -21.81972359 54.77261617 -19.43359375 56.41015625 C-15.72883739 58.53740345 -12.86683752 58.53231861 -8.70703125 57.84375 C-5.69312614 56.94635129 -3.79125623 55.4606363 -1.62109375 53.22265625 C-0.21108711 50.40264298 -0.37560924 48.3525837 -0.62109375 45.22265625 C-3.1656371 39.1057736 -8.64989052 37.08725399 -14.19726562 34.1484375 C-19.95065263 30.96614267 -24.62694496 27.21095384 -27.62109375 21.22265625 C-28.81149782 9.06352895 -28.81149782 9.06352895 -25.62109375 4.16015625 C-18.36040743 -4.08502991 -9.57256616 -4.07747475 0 0 Z " fill="#2D296C" transform="translate(444.62109375,271.77734375)"/>
<path d="M0 0 C2.64 0 5.28 0 8 0 C8 7.92 8 15.84 8 24 C12.62 24 17.24 24 22 24 C22 26.31 22 28.62 22 31 C17.38 31 12.76 31 8 31 C8 50.47 8 69.94 8 90 C5.36 90 2.72 90 0 90 C0 70.53 0 51.06 0 31 C-3.96 31 -7.92 31 -12 31 C-12 28.69 -12 26.38 -12 24 C-8.04 24 -4.08 24 0 24 C0 16.08 0 8.16 0 0 Z " fill="#252368" transform="translate(473,247)"/>
<path d="M0 0 C2.97 0 5.94 0 9 0 C9 30.36 9 60.72 9 92 C6.03 92 3.06 92 0 92 C0 61.64 0 31.28 0 0 Z " fill="#2D2B6D" transform="translate(621,245)"/>
<path d="M0 0 C0.77601563 0.09925781 1.55203125 0.19851563 2.3515625 0.30078125 C4.375 0.6875 4.375 0.6875 6.375 1.6875 C4.19075898 7.90418598 4.19075898 7.90418598 1.375 9.6875 C-0.5121875 9.625625 -0.5121875 9.625625 -2.4375 9.5625 C-5.89126926 9.46110494 -6.67897931 9.71864191 -9.875 11.5625 C-15.44992964 16.94748495 -17.05950454 24.91095848 -17.23065186 32.37649536 C-17.23249481 33.70993484 -17.23249481 33.70993484 -17.234375 35.0703125 C-17.25091125 36.01059296 -17.26744751 36.95087341 -17.28448486 37.91964722 C-17.33255729 40.88400059 -17.3542445 43.84784263 -17.375 46.8125 C-17.40319383 48.83856684 -17.43312596 50.86461027 -17.46484375 52.890625 C-17.53830487 57.82287448 -17.58812748 62.75484683 -17.625 67.6875 C-20.595 67.6875 -23.565 67.6875 -26.625 67.6875 C-26.625 45.9075 -26.625 24.1275 -26.625 1.6875 C-23.655 1.6875 -20.685 1.6875 -17.625 1.6875 C-17.295 3.9975 -16.965 6.3075 -16.625 8.6875 C-16.09390625 8.20539063 -15.5628125 7.72328125 -15.015625 7.2265625 C-13.95601562 6.27910156 -13.95601562 6.27910156 -12.875 5.3125 C-12.17890625 4.68601562 -11.4828125 4.05953125 -10.765625 3.4140625 C-7.0627318 0.42742236 -4.7655196 -0.66143499 0 0 Z " fill="#2E2B6E" transform="translate(528.625,269.3125)"/>
<path d="M0 0 C2.64 0 5.28 0 8 0 C8 21.78 8 43.56 8 66 C5.36 66 2.72 66 0 66 C0 44.22 0 22.44 0 0 Z " fill="#27256A" transform="translate(644,271)"/>
<path d="M0 0 C2.97 0 5.94 0 9 0 C9 30.36 9 60.72 9 92 C6.03 92 3.06 92 0 92 C0 91.67 0 91.34 0 91 C2.31 91 4.62 91 7 91 C7 61.63 7 32.26 7 2 C4.69 2 2.38 2 0 2 C0 1.34 0 0.68 0 0 Z " fill="#4B477C" transform="translate(621,245)"/>
<path d="M0 0 C3.5625 0.5 3.5625 0.5 6.0625 2.0625 C7.5625 4.5 7.5625 4.5 7.5 8.0625 C6.15951493 12.97761194 6.15951493 12.97761194 3.5625 14.5 C-0.06781776 15.04068562 -1.75964079 14.96379841 -4.8125 12.875 C-6.9128727 9.80522452 -6.97043835 8.15443439 -6.4375 4.5 C-4.82303773 0.89120198 -3.95737975 0.57561887 0 0 Z " fill="#79BAE3" transform="translate(647.4375,243.5)"/>
</svg>
