<?xml version="1.0" encoding="UTF-8"?>
<svg version="1.1" xmlns="http://www.w3.org/2000/svg" width="200" height="40">
<path d="M0 0 C30.69 0 61.38 0 93 0 C93 13.2 93 26.4 93 40 C62.31 40 31.62 40 0 40 C0 26.8 0 13.6 0 0 Z " fill="#F8F8F9" transform="translate(45,0)"/>
<path d="M0 0 C2.34643555 -0.19140625 2.34643555 -0.19140625 5 0 C6.87428786 2.3361553 8.32638858 4.43825053 9.8125 7 C10.21919922 7.66773438 10.62589844 8.33546875 11.04492188 9.0234375 C12.04616957 10.67255135 13.02525841 12.3350819 14 14 C14.33 9.38 14.66 4.76 15 0 C16.65 0 18.3 0 20 0 C20.01981934 0.73114014 20.03963867 1.46228027 20.06005859 2.21557617 C20.15552914 5.53990269 20.26511966 8.86361986 20.375 12.1875 C20.4059375 13.33798828 20.436875 14.48847656 20.46875 15.67382812 C20.50742188 16.78564453 20.54609375 17.89746094 20.5859375 19.04296875 C20.63306885 20.57473755 20.63306885 20.57473755 20.68115234 22.13745117 C21.00876795 25.07871688 21.77312194 27.32024003 23 30 C23.33 29.67 23.66 29.34 24 29 C26.33297433 28.95907063 28.66705225 28.95758277 31 29 C31 31.64 31 34.28 31 37 C27.58362047 37.11632513 24.16775103 37.18728897 20.75 37.25 C19.78191406 37.28351562 18.81382813 37.31703125 17.81640625 37.3515625 C10.5980051 37.45112665 10.5980051 37.45112665 7.328125 34.984375 C6.88984375 34.32953125 6.4515625 33.6746875 6 33 C5.67 34.32 5.34 35.64 5 37 C4.34 37 3.68 37 3 37 C3 34.69 3 32.38 3 30 C2.34 30 1.68 30 1 30 C1 32.31 1 34.62 1 37 C0.67 37 0.34 37 0 37 C-1.1294347 29.47043535 -1.1294347 29.47043535 -0.51367188 27.23242188 C0.1191682 24.4820941 0.1120548 21.96274171 0.09765625 19.140625 C0.09443359 18.02558594 0.09121094 16.91054688 0.08789062 15.76171875 C0.07951172 14.60285156 0.07113281 13.44398437 0.0625 12.25 C0.05798828 11.07566406 0.05347656 9.90132812 0.04882812 8.69140625 C0.03705094 5.79421928 0.02060326 2.89713546 0 0 Z " fill="#D4D4E1" transform="translate(100,1)"/>
<path d="M0 0 C3.14847243 1.300456 4.61740061 2.5514352 6.8125 5.125 C8.49118858 9.18919342 8.92968895 12.67620852 8 17 C5.68127843 20.92286857 3.35266518 23.54911161 -1 25 C-5.15286777 25.39177998 -7.48969587 25.25515206 -11.25 23.375 C-15.13697012 20.01807126 -16.69814904 17.06983519 -17.4375 12 C-16.76022306 7.35581527 -14.38893417 4.54326019 -11.3125 1.125 C-7.61367749 -0.67442716 -4.03041366 -0.52633309 0 0 Z " fill="#79B7E4" transform="translate(80,1)"/>
<path d="M0 0 C1.65 0 3.3 0 5 0 C6.87428786 2.3361553 8.32638858 4.43825053 9.8125 7 C10.21919922 7.66773438 10.62589844 8.33546875 11.04492188 9.0234375 C12.04616957 10.67255135 13.02525841 12.3350819 14 14 C14.33 9.38 14.66 4.76 15 0 C16.65 0 18.3 0 20 0 C20 7.92 20 15.84 20 24 C18.35 24 16.7 24 15 24 C12.796875 21.6640625 12.796875 21.6640625 10.75 18.625 C9.72132812 17.12839844 9.72132812 17.12839844 8.671875 15.6015625 C7 13 7 13 6 11 C5.67 15.29 5.34 19.58 5 24 C3.35 24 1.7 24 0 24 C0 16.08 0 8.16 0 0 Z " fill="#3E3D7B" transform="translate(100,1)"/>
<path d="M0 0 C3.14847243 1.300456 4.61740061 2.5514352 6.8125 5.125 C8.49118858 9.18919342 8.92968895 12.67620852 8 17 C5.68127843 20.92286857 3.35266518 23.54911161 -1 25 C-5.15286777 25.39177998 -7.48969587 25.25515206 -11.25 23.375 C-15.13697012 20.01807126 -16.69814904 17.06983519 -17.4375 12 C-16.76022306 7.35581527 -14.38893417 4.54326019 -11.3125 1.125 C-7.61367749 -0.67442716 -4.03041366 -0.52633309 0 0 Z M-13 8 C-13.81637162 10.85155156 -13.76112644 13.14000975 -13 16 C-11.10350449 19.14658666 -11.10350449 19.14658666 -8 21 C-3.91683857 21.65622237 -1.77206035 21.37781677 1.9375 19.5625 C4.54184619 16.32679715 4.78363947 14.27604462 4.5546875 10.1953125 C3.92122202 7.68821673 3.21496268 6.66253093 1.3125 4.9375 C-4.51782038 1.52731261 -8.88568447 2.33259847 -13 8 Z " fill="#A3288A" transform="translate(80,1)"/>
<path d="M0 0 C9 0 9 0 13 2 C14.54163175 5.0832635 14.29747535 7.60878099 14 11 C12.3125 12.9375 12.3125 12.9375 10 14 C8.35 14 6.7 14 5 14 C5 17.3 5 20.6 5 24 C3.35 24 1.7 24 0 24 C0 16.08 0 8.16 0 0 Z " fill="#3A3978" transform="translate(47,1)"/>
<path d="M0 0 C4.29 0 8.58 0 13 0 C13 1.65 13 3.3 13 5 C11.68 5 10.36 5 9 5 C9 11.27 9 17.54 9 24 C7.35 24 5.7 24 4 24 C4 17.73 4 11.46 4 5 C2.68 5 1.36 5 0 5 C0 3.35 0 1.7 0 0 Z " fill="#3C3A79" transform="translate(122,1)"/>
<path d="M0 0 C1.65 0 3.3 0 5 0 C5 7.92 5 15.84 5 24 C3.35 24 1.7 24 0 24 C0 16.08 0 8.16 0 0 Z " fill="#41407D" transform="translate(91,1)"/>
<path d="M0 0 C4.29 0 8.58 0 13 0 C13 5.28 13 10.56 13 16 C9.18505588 12.18505588 7.05174241 8.86704081 4.46484375 4.2421875 C3.0427433 1.74452724 3.0427433 1.74452724 0 0 Z " fill="#F8F8FA" transform="translate(102,0)"/>
<path d="M0 0 C3.66666667 0 7.33333333 0 11 0 C11 2.64 11 5.28 11 8 C7.37 8 3.74 8 0 8 C0 5.36 0 2.72 0 0 Z " fill="#7F7EA6" transform="translate(120,30)"/>
<path d="M0 0 C3.63467079 1.62400184 4.77408696 2.66113044 7 6 C7.1953125 8.48046875 7.1953125 8.48046875 7.125 11.1875 C7.10695313 12.08855469 7.08890625 12.98960938 7.0703125 13.91796875 C7.04710938 14.60503906 7.02390625 15.29210938 7 16 C6.67 16 6.34 16 6 16 C5.80083984 15.07767578 5.80083984 15.07767578 5.59765625 14.13671875 C5.42105469 13.32847656 5.24445313 12.52023437 5.0625 11.6875 C4.88847656 10.88699219 4.71445313 10.08648437 4.53515625 9.26171875 C4.00113841 6.854599 4.00113841 6.854599 3 4 C-0.50105791 2.51878319 -4.27212345 2.67299328 -8 3 C-11.56871184 5.0619224 -12.76350023 6.41438153 -14.3125 10.25 C-14.539375 11.1575 -14.76625 12.065 -15 13 C-15.33 13 -15.66 13 -16 13 C-16.34751969 10.08083462 -16.53280018 7.86804524 -14.95703125 5.30078125 C-10.36947776 -0.25540523 -6.90667553 -0.68110814 0 0 Z " fill="#3A3074" transform="translate(80,1)"/>
<path d="M0 0 C0.66 0 1.32 0 2 0 C2.33 1.98 2.66 3.96 3 6 C3.66 6 4.32 6 5 6 C5.33 4.02 5.66 2.04 6 0 C8.31 0 10.62 0 13 0 C12.01 0.33 11.02 0.66 10 1 C10 1.66 10 2.32 10 3 C10.99 3.33 11.98 3.66 13 4 C12.67 5.32 12.34 6.64 12 8 C11.278125 7.814375 10.55625 7.62875 9.8125 7.4375 C7.01214155 6.83247571 7.01214155 6.83247571 4.3125 7.5625 C3.549375 7.706875 2.78625 7.85125 2 8 C0 6 0 6 -0.125 2.875 C-0.08375 1.92625 -0.0425 0.9775 0 0 Z " fill="#9190B2" transform="translate(85,30)"/>
<path d="M0 0 C1.134375 0.020625 2.26875 0.04125 3.4375 0.0625 C3.4375 2.7025 3.4375 5.3425 3.4375 8.0625 C-2.3125 8.1875 -2.3125 8.1875 -4.5625 7.0625 C-4.60504356 5.06295254 -4.60330783 3.06208364 -4.5625 1.0625 C-3.5625 0.0625 -3.5625 0.0625 0 0 Z " fill="#73709D" transform="translate(80.5625,29.9375)"/>
<path d="M0 0 C-0.61875 0.2475 -1.2375 0.495 -1.875 0.75 C-4.35068687 2.20628639 -4.95125002 3.37812506 -6 6 C-6.66 5.34 -7.32 4.68 -8 4 C-8.66 5.32 -9.32 6.64 -10 8 C-10 5.36 -10 2.72 -10 0 C-6.7169902 -1.6415049 -3.57454967 -0.51888624 0 0 Z " fill="#8A88AD" transform="translate(114,30)"/>
<path d="M0 0 C0.2475 0.515625 0.495 1.03125 0.75 1.5625 C3.44200021 7.67047484 3.44200021 7.67047484 8 12 C7.67 12.99 7.34 13.98 7 15 C3.26933078 12.34926135 1.17310045 10.4791108 0 6 C-0.125 2.6875 -0.125 2.6875 0 0 Z " fill="#4B4280" transform="translate(63,10)"/>
<path d="M0 0 C1.32 0 2.64 0 4 0 C4.625 1.875 4.625 1.875 5 4 C4.34 4.66 3.68 5.32 3 6 C0.875 5.625 0.875 5.625 -1 5 C-0.67 3.35 -0.34 1.7 0 0 Z " fill="#EFEFF3" transform="translate(125,31)"/>
<path d="M0 0 C1.65 0.33 3.3 0.66 5 1 C4.6875 2.9375 4.6875 2.9375 4 5 C3.01 5.33 2.02 5.66 1 6 C0.34 5.67 -0.32 5.34 -1 5 C-0.67 3.35 -0.34 1.7 0 0 Z " fill="#EFEFF3" transform="translate(110,31)"/>
<path d="M0 0 C1.98 0.495 1.98 0.495 4 1 C3.67 2.65 3.34 4.3 3 6 C1.68 5.67 0.36 5.34 -1 5 C-0.67 3.35 -0.34 1.7 0 0 Z " fill="#F6F6F8" transform="translate(78,31)"/>
<path d="M0 0 C0.33 0 0.66 0 1 0 C1.05422947 1.4370809 1.09289723 2.87475462 1.125 4.3125 C1.14820312 5.11300781 1.17140625 5.91351563 1.1953125 6.73828125 C1 9 1 9 -1 12 C-1.99 11.67 -2.98 11.34 -4 11 C-3.34 10.01 -2.68 9.02 -2 8 C-1.34 8 -0.68 8 0 8 C0 5.36 0 2.72 0 0 Z " fill="#463F7D" transform="translate(87,9)"/>
<path d="M0 0 C2.475 0.495 2.475 0.495 5 1 C5 1.99 5 2.98 5 4 C3.35 4 1.7 4 0 4 C0 2.68 0 1.36 0 0 Z " fill="#F2F1F5" transform="translate(52,6)"/>
</svg>
